PathFileType	4	(X/Y/Z)	RBDS001\RBDS001runT35.trc
DataRate	CameraRate	NumFrames	NumMarkers	Units	OrigDataRate	OrigDataStartFrame	OrigNumFrames
150.000000	150.000000	4	32	mm	150.000000	0	4500
Frame#	Time	L.ASIS			L.Heel.Bottom			L.Heel.Lateral			L.Heel.Top			L.Iliac.Crest			L.MT1			L.MT5			L.PSIS			L.Shank.Bottom.Lateral			L.Shank.Bottom.Medial			L.Shank.Top.Lateral			L.Shank.Top.Medial			L.Thigh.Bottom.Lateral			L.Thigh.Bottom.Medial			L.Thigh.Top.Lateral			L.Thigh.Top.Medial			R.ASIS			R.Heel.Bottom			R.Heel.Lateral			R.Heel.Top			R.Iliac.Crest			R.MT1			R.MT5			R.PSIS			R.Shank.Bottom.Lateral			R.Shank.Bottom.Medial			R.Shank.Top.Lateral			R.Shank.Top.Medial			R.Thigh.Bottom.Lateral			R.Thigh.Bottom.Medial			R.Thigh.Top.Lateral			R.Thigh.Top.Medial			
		X1	Y1	Z1	X2	Y2	Z2	X3	Y3	Z3	X4	Y4	Z4	X5	Y5	Z5	X6	Y6	Z6	X7	Y7	Z7	X8	Y8	Z8	X9	Y9	Z9	X10	Y10	Z10	X11	Y11	Z11	X12	Y12	Z12	X13	Y13	Z13	X14	Y14	Z14	X15	Y15	Z15	X16	Y16	Z16	X17	Y17	Z17	X18	Y18	Z18	X19	Y19	Z19	X20	Y20	Z20	X21	Y21	Z21	X22	Y22	Z22	X23	Y23	Z23	X24	Y24	Z24	X25	Y25	Z25	X26	Y26	Z26	X27	Y27	Z27	X28	Y28	Z28	X29	Y29	Z29	X30	Y30	Z30	X31	Y31	Z31	X32	Y32	Z32	

1	0	2420.356421678848	992.3859925999391	963.9099818232698	2247.191336227931	37.35803394419974	1112.211119082582	2268.936694159082	54.88682844346965	1068.705911714646	2259.726951996772	83.78002801104891	1115.915568248276	2359.616527192718	1051.092874149349	933.8275309773572	2477.466754264495	44.44721152207401	1114.730156720969	2424.072680422635	47.86765451329607	1016.807147311158	2253.853777783452	1026.512469187783	1048.603340182684	2362.823052613006	163.4946468520592	1037.376688118777	2322.050898749891	181.2775491127447	1063.021383137531	2381.242256780912	237.4386177434912	1009.383010464607	2341.243317181184	259.5852832840059	1037.748846273995	2421.158365005339	598.6682929023806	950.752652655671	2377.529621101957	588.988683478962	1009.416700625978	2369.820306630498	694.4882474441723	932.0163463105899	2329.321442311374	686.2184629586221	987.1241207632721	2428.645106419445	966.4630660291468	1175.610906066817	1909.781032501327	494.700376961314	1138.140813868218	1922.070223934828	466.3357895629288	1184.213863239816	1957.139598501406	483.4117974958976	1143.607105170566	2380.737784771399	1041.831542245944	1210.073522594348	1917.471888902633	296.6831630669519	1210.019058122095	1936.355960795492	272.6089782860481	1104.44750562998	2262.698116613031	1019.483334916016	1122.963340178503	2058.517262722725	432.6436819162129	1196.501962509118	2055.882594698487	472.5610420545567	1160.238164333603	2137.07919892286	449.8975485658269	1208.427226882128	2133.868018372291	489.0877093225454	1171.660865693059	2390.704776243308	543.932855722416	1220.122398775593	2340.281948370221	534.960905465016	1166.184154938381	2356.178935906087	648.3578913697692	1231.722291718899	2306.826374477012	638.3231302469179	1182.731878661918	
2	0.006666666666666667	2419.162094210542	990.4137395727446	964.4966346869221	2224.089389894277	37.24326862452745	1112.056350818708	2245.819747793059	54.81783538593024	1068.520984112496	2236.669362435762	83.66790369974362	1115.806913503598	2357.045483444006	1049.19171248391	934.3166024822582	2454.222045508629	44.12646648252842	1114.418691701752	2400.743547099444	47.66400504942595	1016.411086473804	2252.592917024182	1025.813678678083	1048.8505684883	2342.39339939622	162.686362268771	1036.677265122048	2301.985884830189	181.6359408040846	1062.079332225335	2362.967636430044	235.785055463268	1008.620470059598	2323.526030396164	259.1312029111148	1036.685828244913	2412.700354587976	595.5791316778509	949.6321990488843	2368.225667287901	586.4334718489947	1007.711451816953	2363.593400416818	692.6465824956941	931.1764146804164	2322.480965012432	684.9784743414324	985.8897853823721	2426.619800135256	965.0103586150647	1176.174439520021	1923.337228081631	491.1730121772127	1140.507205836402	1937.308393012295	463.6091728882606	1186.572786194119	1971.064035771884	480.9312738297875	1144.96748733923	2377.79950017386	1040.370450011535	1210.953884089716	1937.165612643066	293.7633614693642	1213.443396989454	1953.811700130838	269.1801681351843	1107.886738362799	2260.895937484673	1018.432185382458	1123.200544502567	2074.093495455901	431.0164858953537	1197.893422205981	2070.966453223024	471.2331809874285	1161.786493426289	2152.713082332955	448.9089473403581	1209.478468956366	2148.932407813301	488.4319522249846	1173.092197757462	2403.805823832029	545.633186388702	1221.096485390113	2353.209261060208	534.4460296417698	1168.028056650523	2365.319879984047	648.4430405006632	1233.170540322179	2315.679552620552	636.0652706726497	1185.272244806822	
3	0.01333333333333333	2418.038112834624	988.570993332153	965.0726894067092	2200.966911176369	37.28435595512791	1111.890627334981	2222.674173759465	54.87188376836087	1068.317320555899	2213.606704709093	83.70172487708737	1115.655988314106	2354.687440839571	1047.493014768291	934.7910279222192	2430.926003340257	43.84223357666824	1114.101421937115	2377.362343447554	47.48595929428309	1016.028507771396	2251.420128957072	1025.294516532334	1049.067850431506	2321.834623545135	162.0171872923477	1035.994356638558	2281.796792437406	182.0945280285567	1061.171914083998	2344.510098486414	234.3016779314027	1007.889459352388	2305.619515078174	258.8015341259211	1035.677024098781	2403.982706491392	592.688756900837	948.5912977783237	2358.696950142833	584.1412421160792	1006.114032492098	2357.194612183427	690.9994438978873	930.4008248052072	2315.509921747462	683.9858120034398	984.753042712694	2424.680642150372	963.7518294595822	1176.725470503443	1936.885648178353	487.2322332368176	1142.81469230736	1952.532659510038	460.4860443371181	1188.858773716662	1984.963277320041	478.0984133569893	1146.273340369145	2374.994432361826	1039.117074414615	1211.799490562207	1957.015955611314	290.5428739712023	1216.748593827636	1971.530042268635	265.48291078021	1111.201420501611	2259.186649538091	1017.588229101864	1123.413156743539	2089.658588831955	429.2144082448353	1199.221377013046	2085.976800504898	469.7044233511359	1163.277287529578	2168.2808221898	447.8665228461962	1210.476003605815	2163.873277930701	487.6917564557756	1174.45865943482	2416.757977085809	547.669171650028	1222.022036269168	2366.008320095494	534.2597214409027	1169.835224036947	2374.366029942204	648.8445638025273	1234.536687967641	2324.447891845499	634.1246933169314	1187.738592231758	
4	0.02	2417.043474204363	986.9885217193538	965.6170090904591	2177.760779343449	37.60646772146267	1111.699895253594	2199.447630237849	55.14604861573273	1068.075506591676	2190.493575088341	84.00551269009397	1115.428149776631	2352.727519495511	1046.19281768366	935.2387915965339	2407.511550949854	43.61384644660457	1113.785151558922	2353.882472299245	47.34106395073855	1015.675836731252	2250.41404757791	1025.121682634218	1049.235676708501	2301.016508817318	161.6157543324796	1035.350874376388	2261.350398194559	182.7515644015969	1060.331926188093	2325.695908821833	233.1442449202411	1007.227028467783	2287.334634557727	258.7148624288393	1034.770828603908	2394.764536926853	590.1794595889855	947.7104475197285	2348.732956490018	582.3557224484227	1004.729221259048	2350.464875420982	689.7259918994959	929.7540700201525	2308.283343459059	683.4700476282835	983.8050911823475	2422.915963499417	962.8738984553745	1177.241197919237	1950.399549324824	482.5128022494724	1145.007042470815	1967.712817967679	456.6172330625261	1191.003249804164	1998.797347648878	474.6025009471201	1147.474942004436	2372.451461790067	1038.266691490317	1212.57549070906	1977.145783264978	286.7521404159172	1219.827115566433	1989.732199689355	261.2708001197745	1114.278224275693	2257.65874916537	1017.145072261109	1123.585698589742	2105.19377887558	427.087122345468	1200.426739384549	2100.836083218805	467.8021587690916	1164.656162537776	2183.7166895875	446.7312644431411	1211.370548576897	2178.570312380861	486.8019672692661	1175.702270505923	2429.438696605379	550.3471587920798	1222.855932807898	2378.579861425448	534.7110185205978	1171.561752744786	2383.243060696794	649.8483611600102	1235.755167651971	2333.072512036073	632.7966175991065	1190.060774271317	
